<svg width="32" height="32" viewBox="0 0 32 32" fill="none" xmlns="http://www.w3.org/2000/svg">
<path d="M28.3582 0.524969C28.0161 0.233739 27.6248 0.0575502 27.2189 0.0118912C26.8129 -0.0337678 26.4046 0.052501 26.0299 0.263114L13.7512 6.6262C13.4605 6.78187 13.1497 6.86191 12.8358 6.86187H4.97512C4.31538 6.86187 3.68266 7.20673 3.21615 7.82057C2.74964 8.43441 2.48756 9.26696 2.48756 10.1351V10.3969H0V18.2526H2.48756V18.593C2.50315 19.4474 2.7721 20.2599 3.23693 20.8569C3.70176 21.4538 4.3256 21.7879 4.97512 21.7876L7.9602 30.1146C8.16233 30.6754 8.48056 31.1497 8.87833 31.4832C9.27611 31.8167 9.73731 31.9958 10.209 32H11.4627C12.119 31.9931 12.7466 31.6452 13.2088 31.0321C13.671 30.419 13.9304 29.5904 13.9303 28.7268V22.1019L26.0299 28.465C26.3275 28.6208 26.6449 28.7008 26.9652 28.7006C27.4621 28.6901 27.946 28.49 28.3582 28.1245C28.6855 27.8337 28.9555 27.4446 29.1458 26.9892C29.3362 26.5339 29.4414 26.0254 29.4527 25.506V3.22208C29.4509 2.68925 29.3503 2.16505 29.1595 1.69503C28.9688 1.225 28.6937 0.823354 28.3582 0.524969V0.524969ZM11.4428 10.1351V18.593H4.97512V10.1351H11.4428ZM11.4428 28.7268H10.1891L7.74129 21.7876H11.4428V28.7268ZM14.6667 18.9858C14.4304 18.8269 14.184 18.6955 13.9303 18.593V9.95177C14.1816 9.88356 14.4279 9.78719 14.6667 9.66373L26.9652 3.22208V25.4274L14.6667 18.9858ZM29.5124 11.0516V17.5979C30.1722 17.5979 30.8049 17.2531 31.2714 16.6393C31.7379 16.0254 32 15.1929 32 14.3248C32 13.4566 31.7379 12.6241 31.2714 12.0103C30.8049 11.3964 30.1722 11.0516 29.5124 11.0516V11.0516Z" fill="white"/>
</svg>
