<svg width="337" height="270" viewBox="0 0 337 270" fill="none" xmlns="http://www.w3.org/2000/svg">
<path fill-rule="evenodd" clip-rule="evenodd" d="M128.758 61.0596C129.889 60.5358 131.396 61.1433 130.767 62.528C130.094 64.0109 127.603 64.0292 126.197 63.9998C126.338 63.9929 126.791 62.6331 126.946 62.4276C127.404 61.8215 128.063 61.3822 128.758 61.0596ZM115.739 88.0784C115.706 88.1083 115.339 88.3974 115.739 88.0784ZM130.072 67.9443C130.748 68.4224 130.78 69.267 130.227 69.8389C129.569 70.5199 128.368 70.4956 127.471 70.4297C127.065 70.3999 124.9 70.2405 125.413 69.9123C125.374 69.9261 125.291 69.9596 125.203 70.0052C125.155 70.1658 125.105 70.3258 125.053 70.4852C125.066 70.4921 125.077 70.4994 125.09 70.5063C125.076 70.5003 125.065 70.4939 125.052 70.4878C124.531 72.0803 123.788 73.5967 122.817 75.0156C123.18 74.8831 123.556 74.7827 123.938 74.7379C125.068 74.6052 127.445 75.4165 126.18 76.8091C124.967 78.1442 123.081 76.7134 121.706 76.5166C120.371 78.24 118.899 79.8917 117.356 81.4883C117.451 81.5157 117.534 81.5726 117.581 81.6614C118.2 81.3708 118.844 80.9552 119.417 80.8426C120.243 80.6802 121.936 80.5811 122.56 81.2648C123.328 82.1055 122.504 82.789 121.597 82.9508C120.282 83.1853 118.56 82.5916 117.295 82.1904C117.15 82.2142 116.992 82.1751 116.898 82.068C116.87 82.0595 116.842 82.0512 116.814 82.0431C115.252 83.6319 113.631 85.1683 112.019 86.6711C112.036 86.6702 112.053 86.6693 112.071 86.6684C112.492 86.4132 112.942 86.2037 113.431 86.0939C114.561 85.8385 115.891 85.8366 116.808 86.5928C117.721 87.3458 118.044 88.6633 117.099 89.5097C115.206 91.204 112.42 87.3442 111.466 87.1835C109.828 88.6946 108.096 90.1066 106.337 91.4901C106.537 91.4337 106.742 91.3923 106.953 91.3736C108.678 91.2201 112.723 93.1738 110.606 95.099C108.762 96.7766 106.629 93.5503 105.144 92.4224C103.486 93.7119 101.82 94.9925 100.2 96.323C101.083 96.1057 101.936 96.0733 102.883 96.3375C103.862 96.6113 105.443 97.2949 104.823 98.5188C104.192 99.7635 102.294 99.1982 101.306 98.8035C100.767 98.5883 99.6864 97.8616 98.7374 97.5557C96.1525 99.8138 93.9132 102.301 92.2173 105.23C91.1586 107.059 90.3549 109.012 89.7888 111.02C89.4275 112.302 88.7158 114.454 88.8571 116.122C88.1809 112.784 89.4091 108.774 90.7314 105.789C91.9472 103.045 93.7658 100.635 95.8956 98.4656C95.3622 96.9794 90.8673 94.8376 93.5559 93.4553C94.9836 92.7244 96.4448 93.9354 96.7561 95.2184C96.9699 96.1002 96.6428 97.2083 96.2958 98.0643C96.9658 97.4031 97.6623 96.763 98.3799 96.1442C99.3717 95.289 100.387 94.4585 101.412 93.6385C99.7245 92.1715 98.1287 87.9762 100.393 87.2889C103.737 86.2768 102.124 92.0012 101.89 93.074C101.824 93.0776 101.773 93.0591 101.735 93.0195C101.753 93.1177 101.775 93.2228 101.801 93.3287C103.764 91.7674 105.755 90.2368 107.681 88.6382C107.507 88.5197 107.232 88.0667 107.015 87.8256C106.527 87.2821 106.059 86.7143 105.717 86.0784C105.178 85.0735 104.658 83.4704 106.09 82.8785C107.647 82.2335 108.386 84.0466 108.397 85.1284C108.404 85.8766 108.183 86.5874 108.068 87.3208C108.032 87.5495 108.169 88.5804 107.833 88.1371C107.849 88.3006 107.851 88.419 107.843 88.503C108.189 88.2146 108.532 87.923 108.873 87.6294C108.857 87.5923 108.845 87.5519 108.843 87.5051C108.825 87.1825 109.175 87.0582 109.421 87.1525C109.871 86.757 110.317 86.3565 110.754 85.948C111.681 85.0827 112.622 84.1926 113.556 83.2837C113.354 83.1227 113.434 82.8997 113.245 82.7289C113.056 82.5584 112.684 82.4643 112.461 82.3059C111.902 81.9075 111.438 81.3269 111.103 80.7554C110.55 79.8111 109.835 77.8299 111.453 77.379C113.122 76.9134 113.967 78.8204 114.074 80.0129C114.094 80.2439 113.906 82.3256 113.763 83.0816C115.491 81.3923 117.192 79.6396 118.732 77.8566C118.265 77.8528 116.942 76.9686 116.675 76.7273C116.023 76.1387 114.986 74.8378 116.13 74.1487C117.148 73.5374 118.402 74.4215 118.837 75.281C118.908 75.4226 119.16 76.7401 119.179 77.3313C119.817 76.5752 120.425 75.8147 120.991 75.0517C121.368 74.5445 121.721 74.0238 122.051 73.4921C121.972 73.4505 121.897 73.378 121.827 73.2877C120.13 73.022 117.967 70.573 119.961 69.7197C120.91 69.3139 121.939 70.1501 122.404 70.8349C122.499 70.975 122.653 71.6795 122.778 72.2352C123.728 70.4739 124.454 68.6093 125.007 66.6976C124.859 66.6637 124.734 66.5594 124.717 66.3798C123.894 65.9455 123.243 65.584 122.668 64.7485C122.311 64.2295 121.668 63.0438 122.719 62.7551C124.085 62.3796 124.942 64.3102 125.054 65.2612C125.067 65.3716 125.066 65.6927 125.061 65.987C125.109 65.981 125.157 65.9816 125.204 65.9893C125.518 64.8056 125.769 63.6067 125.969 62.4057C125.224 62.184 125.097 58.5602 125.593 58.0439C126.704 56.888 127.486 58.5567 127.426 59.4388C127.356 60.4789 126.846 61.4253 126.239 62.2653C126.174 62.3542 126.192 62.3499 126.176 62.226C126.166 62.2873 126.144 62.3325 126.111 62.3652C126.142 62.9127 126.203 63.4732 126.173 63.9577C126.089 65.3451 125.913 66.7406 125.659 68.1103C125.597 68.4434 125.526 68.7738 125.447 69.1013C126.046 68.6285 126.855 68.2084 127.171 68.0769C127.992 67.7361 129.257 67.368 130.072 67.9443ZM88.7228 115.99C88.7625 116.436 88.8801 116.843 89.1118 117.176C88.9418 116.795 88.8142 116.399 88.7228 115.99Z" fill="#C1DEE2"/>
<path fill-rule="evenodd" clip-rule="evenodd" d="M118.455 106.488C119.809 104.685 122.32 100.107 124.225 99.463C125.451 99.0481 125.094 103.34 125.109 104.158C125.168 107.324 124.838 110.47 124.431 113.61C123.696 119.272 121.296 124.315 118.004 129.134C116.31 131.613 114.323 134.123 111.571 135.67C110.304 136.383 108.78 136.502 107.529 137.116C106.072 137.831 106.865 137.253 106.209 138.671C105.297 140.641 105.005 143.181 104.583 145.283C102.646 154.929 97.9563 205.92 98.7693 215.732C98.8415 216.602 97.5435 216.81 97.4787 215.748C97.1343 210.119 100.115 171.135 101.618 158.386C103.122 145.637 104.643 134.374 106.169 129.964C108.02 124.613 111.363 118.177 114.146 113.187C115.438 110.869 116.847 108.63 118.455 106.488Z" fill="#69A1AC"/>
<path fill-rule="evenodd" clip-rule="evenodd" d="M128.5 169.016C132.021 166.6 135.833 171.159 132.646 173.574C130.885 174.91 129.043 174.435 128.006 173.322C127.333 174.088 126.703 174.89 126.098 175.567C124.254 177.629 122.511 179.741 120.845 181.902C117.385 186.392 114.419 191.135 111.318 195.792C108.258 200.388 105.222 205.007 102.449 209.719C100.099 213.711 96.9675 218.408 96.1631 222.785C97.3837 213.502 102.015 204.58 107.53 196.397C113.001 188.281 119.278 179.418 127.749 173.013C126.886 171.828 126.863 170.138 128.5 169.016Z" fill="#C1DEE2"/>
<path fill-rule="evenodd" clip-rule="evenodd" d="M61.6775 146.377C63.6481 146.737 66.8681 150.902 68.4924 152.489C70.4229 154.374 72.1743 156.384 73.8252 158.49C77.3792 163.023 80.5577 167.842 83.2605 172.867C87.6667 181.06 91.1967 189.47 93.7585 198.391C95.3267 203.852 96.3421 209.512 96.9438 215.133C97.0575 216.193 98.2471 224.365 96.5329 224.586C94.9913 224.784 95.4674 218.38 95.3931 217.509C94.5523 207.681 92.0338 198.119 88.5304 188.857C87.7674 186.839 87.0584 184.367 85.8381 182.551C84.9593 181.243 85.8318 181.7 84.2874 181.205C82.9613 180.779 81.4504 180.883 80.0924 180.363C77.1424 179.232 74.7802 177.038 72.7097 174.831C68.6858 170.542 65.4971 165.902 63.835 160.406C62.9129 157.359 62.0656 154.294 61.5954 151.152C61.4738 150.34 60.4083 146.145 61.6775 146.377Z" fill="#69A1AC"/>
<path fill-rule="evenodd" clip-rule="evenodd" d="M69.454 77.0862C76.8769 89.1126 82.9767 102.323 86.9154 115.704C89.3018 123.811 90.9706 132.13 92.6288 140.389C95.1961 153.177 97.6245 165.964 98.3153 178.979C99.0103 192.07 100.384 207.168 95.7963 219.776C98.0881 206.976 95.9061 193.35 95.5198 180.47C95.3351 174.321 94.8001 168.232 94.0983 162.119C93.4173 156.189 92.3046 150.288 91.2685 144.405C90.7638 141.539 90.2337 138.678 89.694 135.819C89.5329 134.966 89.4649 132.435 88.8856 131.852C88.3026 131.265 85.328 131.026 84.3942 130.596C82.5137 129.729 80.7448 128.497 79.1793 127.196C76.1783 124.702 73.5675 121.443 71.5069 118.23C66.7391 110.796 64.8329 101.724 64.9293 93.1151C64.9478 91.4436 67.8252 73.444 66.6696 73.1962C66.7392 73.12 66.805 73.0414 66.867 72.9597C67.7419 74.3282 68.6005 75.706 69.454 77.0862Z" fill="#89C5CC"/>
<path fill-rule="evenodd" clip-rule="evenodd" d="M149.571 120.461C149.686 120.306 150.431 119.233 150.056 119.302C150.82 119.162 149.005 120.485 150.909 119.673C150.005 120.471 150.527 121.507 150.539 122.581C150.558 124.324 150.246 126.053 149.895 127.759C149.339 130.456 148.512 133.077 147.311 135.585C144.694 141.051 140.25 146.312 134.974 149.729C132.37 151.416 129.817 151.991 126.846 152.767C124.97 153.258 124.821 154.165 123.825 155.866C121.752 159.408 119.715 162.939 117.887 166.601C115.703 170.974 113.583 175.352 111.584 179.802C104.848 194.793 99.3658 210.323 96.4867 226.395C96.4162 216.924 98.7615 207.169 101.72 198.141C103.875 191.564 106.68 185.224 109.672 178.947C110.397 177.427 111.496 175.471 111.804 173.792C112.02 172.616 111.361 171.485 111.059 170.246C109.882 165.421 109.966 160.016 111 155.165C112.139 149.816 115.433 147.333 121.006 146.576C123.045 146.299 125.635 146.4 127.504 145.588C129.54 144.704 130.38 141.798 131.538 139.933C134.648 134.922 138.343 130.116 142.586 125.893C143.761 124.724 145.024 123.646 146.364 122.646C147.21 122.015 148.995 121.238 149.571 120.461Z" fill="#89C5CC"/>
<path fill-rule="evenodd" clip-rule="evenodd" d="M87.079 216.166H106.857C107.747 216.166 108.468 216.84 108.468 217.67C108.468 217.744 108.462 217.817 108.45 217.89L106.922 227.574C106.456 230.526 103.744 232.713 100.55 232.713H93.3865C90.1924 232.713 87.4808 230.526 87.0147 227.574L85.4861 217.89C85.3563 217.068 85.9643 216.303 86.8441 216.182C86.9219 216.172 87.0004 216.166 87.079 216.166Z" fill="#C1DEE2"/>
<path d="M317.296 262.514H287.189C286.248 262.514 285.485 263.375 285.485 264.436V265.077C285.485 266.139 286.248 267 287.189 267H317.296C318.237 267 319 266.139 319 265.077V264.436C319 263.375 318.237 262.514 317.296 262.514Z" fill="#AFB9C5"/>
<path fill-rule="evenodd" clip-rule="evenodd" d="M261.154 19.187C268.475 27.4464 268.475 40.8376 261.154 49.097L249.908 61.7862L223.397 31.8761L234.644 19.187C241.965 10.9275 253.834 10.9275 261.154 19.187Z" fill="#C5CFD6"/>
<path d="M234.49 49.4325C241.811 57.6919 248.914 63.0687 250.356 61.4418C251.798 59.815 247.033 51.8005 239.712 43.5411C232.392 35.2816 225.288 29.9049 223.846 31.5317C222.404 33.1586 227.17 41.173 234.49 49.4325Z" fill="#F2F2F2"/>
<path fill-rule="evenodd" clip-rule="evenodd" d="M278.943 28.0514C281.746 25.4551 284.01 21.852 284.69 17.1454C286.648 3.58418 272.282 1.5475 268.262 7.29995C264.243 13.0524 261.165 30.2085 264.39 32.6574C265.677 33.634 268.854 33.5214 272.334 32.1729L266.889 49.3814L277.992 53.3813L278.943 28.0514Z" fill="#915B3C"/>
<path fill-rule="evenodd" clip-rule="evenodd" d="M266.613 9.93883C266.896 9.10763 267.358 8.23742 267.739 7.49168C268.23 6.53032 268.844 5.72515 269.49 4.9904C270.705 3.60708 272.063 2.45159 273.478 1.59642C276.063 0.0343857 279.03 -0.334668 281.598 1.05757C282.895 1.76049 284.059 2.91681 284.939 4.46015C285.734 5.85457 286.393 7.72332 287.667 8.2995C289.053 8.92633 290.679 7.71876 292.016 7.09275C293.523 6.38708 295.049 6.02682 296.605 6.23366C299.211 6.58035 301.33 8.55911 302.502 11.9325C303.749 15.5223 304.223 20.2989 302.247 23.7484C301.88 24.3896 301.471 24.8945 300.958 25.2501C300.487 25.5762 299.811 25.86 299.511 26.5436C299.191 27.2703 299.476 28.4589 299.524 29.2356C299.592 30.3484 299.601 31.4942 299.302 32.5694C298.812 34.3351 297.62 35.7601 296.488 36.6291C295.336 37.5134 294.077 37.8049 292.816 37.6943C291.974 37.6203 291.134 37.4442 290.338 37.0713C289.943 36.8862 289.617 36.6075 289.25 36.347C288.894 36.0938 288.654 36.1529 288.276 36.3169C286.52 37.0788 284.81 37.0023 283.12 36.1861C281.693 35.4971 280.106 34.416 279.184 32.6433C278.16 30.6745 278.596 28.6257 279.346 26.5387C278.972 26.6395 278.034 26.4471 278.753 25.7681C279.038 25.4993 279.474 25.5051 279.791 25.401C280.161 25.2798 280.549 25.0909 280.877 24.7939C282.199 23.5947 281.812 20.0452 280.646 19.0631C278.914 17.6041 277.776 21.0412 276.243 21.4842C275.362 21.7389 274.697 20.7173 274.265 19.7631C273.686 18.4849 273.42 16.9717 273.23 15.4613C273.074 14.2175 272.947 12.9675 272.783 11.7265C272.706 11.147 272.375 9.46773 272.803 8.99791C271.523 8.1483 269.867 8.3612 268.505 8.93236C267.942 9.16853 267.485 9.48786 267.084 10.1184C266.998 10.2535 266.786 10.6709 266.632 10.6356C266.345 10.5699 266.542 10.1477 266.613 9.93883Z" fill="#191847"/>
<path fill-rule="evenodd" clip-rule="evenodd" d="M290.193 168.176C278.703 172.497 268.79 174.657 260.454 174.657C252.117 174.657 244.374 171.33 237.224 164.676C248.468 160.242 257.728 158.024 265.003 158.024C272.279 158.024 280.676 161.408 290.193 168.176Z" fill="#1F28CF"/>
<path fill-rule="evenodd" clip-rule="evenodd" d="M250.507 180.885C250.618 180.661 250.711 180.417 250.785 180.154C252.321 174.693 276.921 115.784 279.372 105.014H251.676C249.813 113.203 241.426 164.591 240.245 174.843C236.521 191.016 228.854 243.392 227.875 247.021C226.845 250.838 232.639 254.814 234.183 250.122C236.64 242.655 242.493 221.994 245.099 209.379C247.543 197.552 249.532 186.912 250.507 180.885Z" fill="#784931"/>
<path fill-rule="evenodd" clip-rule="evenodd" d="M273.166 188.077C284.413 191.899 325.552 198.808 328.375 199.891C331.279 201.006 333.825 192.958 330.235 191.215C324.524 188.441 308.786 182.032 299.243 179.417C291.568 177.313 284.565 175.596 279.863 174.591C280.261 156.833 282.082 114.218 280.888 105.014H256.382C257.527 113.84 267.202 178.241 269 184.687C269.571 186.988 271.274 188.005 273.166 188.077Z" fill="#915B3C"/>
<path fill-rule="evenodd" clip-rule="evenodd" d="M329.975 189.072C331.476 188.697 332.577 188.592 333.276 188.758C334.127 188.959 335.343 189.444 336.925 190.212C336.751 191.539 335.187 203.461 332.234 225.979C329.827 226.367 328.663 225.538 328.744 223.492C328.824 221.446 328.878 219.744 328.904 218.384L325.572 200.453C325.508 200.108 325.664 199.759 325.921 199.673C325.925 199.671 325.93 199.67 325.934 199.668L328.002 199.057C328.889 197.355 329.408 195.925 329.56 194.766C329.684 193.825 329.571 192.457 329.223 190.664C329.089 189.975 329.396 189.272 329.908 189.092C329.93 189.085 329.952 189.078 329.975 189.072Z" fill="#E4E4E4"/>
<path fill-rule="evenodd" clip-rule="evenodd" d="M235.941 249.514C236.477 251.437 236.745 252.876 236.745 253.831C236.745 254.992 236.601 256.686 236.313 258.914C235.311 258.914 226.307 258.914 209.299 258.914C208.597 255.794 209.002 254.11 210.515 253.861C212.027 253.612 213.284 253.387 214.284 253.187L226.84 245.661C227.082 245.517 227.365 245.662 227.473 245.987C227.474 245.993 227.476 245.998 227.478 246.004L228.285 248.636C229.685 249.514 230.823 249.954 231.698 249.954C232.409 249.954 233.392 249.567 234.645 248.795C235.126 248.499 235.694 248.783 235.915 249.429C235.924 249.457 235.933 249.485 235.941 249.514Z" fill="#E4E4E4"/>
<path fill-rule="evenodd" clip-rule="evenodd" d="M280.809 105.014C270.01 100.86 259.792 100.86 250.156 105.014C246.803 125.579 238.656 133.742 237.224 165.272C253.508 176.151 273.625 157.514 290.388 168.123C295.178 153.284 288.472 117.548 280.809 105.014Z" fill="#2B44FF"/>
<path fill-rule="evenodd" clip-rule="evenodd" d="M255.267 62.5921L240.476 46.6555C238.323 41.6634 236.084 37.6517 233.757 34.6203C233.009 33.9757 231.633 33.3667 232.54 36.8307C233.447 40.2948 234.286 43.9933 233.485 44.8046C232.685 45.6159 231.186 43.8621 230.172 45.2848C229.496 46.2332 232.139 48.6113 238.101 52.4189L248.077 69.8832L255.267 62.5921ZM228.291 66.685L221.796 59.6688C221.464 54.2674 220.599 51.3842 219.2 51.0191C218.21 50.0891 219.232 57.0571 217.262 56.007C215.293 54.9568 210.959 48.7867 209.967 49.5956C208.499 50.7924 209.029 55.6615 210.065 58.2666C212.001 63.1355 213.876 65.0882 218.734 68.2148C221.274 69.8495 223.899 72.5415 226.609 76.2907L228.291 66.685Z" fill="#915B3C"/>
<path fill-rule="evenodd" clip-rule="evenodd" d="M263.592 61.7968C257.869 60.3559 250.435 56.9148 243.189 48.0172L238.724 56.8649C243.368 65.7085 250.472 73.7545 257.426 75.1336C262.906 76.2204 266.856 68.0132 263.592 61.7968Z" fill="#2026A2"/>
<path fill-rule="evenodd" clip-rule="evenodd" d="M253.85 75.3736C247.495 75.9716 237.601 71.1442 224.17 60.8914C219.319 69.9353 216.751 76.5941 216.467 80.8678C227.628 92.4154 237.66 98.7623 246.307 101.074C245.123 107.934 244.886 114.671 246.202 121.191C248.909 134.595 275.765 129.143 283.993 133.42C292.388 111.377 283.309 99.4579 285.257 84.5421C287.39 68.2077 280.932 40.7562 279.497 40.416L266.41 37.3134C264.052 49.6153 258.614 62.5002 253.85 75.3736Z" fill="#1F28CF"/>
<path fill-rule="evenodd" clip-rule="evenodd" d="M273.341 67.6766C276.017 63.909 277.828 59.2917 277.526 54.1179C276.654 39.2109 259.352 42.4902 255.987 50.014C252.621 57.5378 253.021 76.6226 257.371 77.9673C259.105 78.5036 262.801 77.1899 266.562 74.4711L264.201 94.5016H278.14L273.341 67.6766Z" fill="#B28B67"/>
<path fill-rule="evenodd" clip-rule="evenodd" d="M259.128 45.0526C259.447 44.8241 260.115 44.342 260.454 44.1673C260.534 44.1253 261.094 43.6455 261.109 43.6515C261.534 43.8233 262.763 44.4575 262.869 45.0056C262.885 45.0471 262.901 45.086 262.917 45.1201C263.091 45.4999 263.251 45.8891 263.403 46.2831C263.738 47.1479 264.027 48.0518 264.302 48.9485C264.84 50.695 265.306 52.4821 265.736 54.2733C266.172 56.0968 266.543 57.9415 266.958 59.7725C267.556 62.4071 268.32 64.9771 268.913 67.6107C269.292 69.2923 269.503 70.9936 269.403 72.7244C269.402 72.7452 269.402 72.7657 269.4 72.7869C269.4 72.7955 269.399 72.8041 269.398 72.8127C269.381 73.0788 269.357 73.3455 269.325 73.613C269.297 73.8417 269.269 74.0713 269.239 74.3009C268.697 73.0049 268.283 71.577 267.844 70.2217C267.801 70.089 267.76 69.9554 267.72 69.8213C267.579 69.5464 267.434 69.2736 267.288 69.0017C266.368 67.2874 265.444 65.5795 264.561 63.8342C262.974 60.6951 261.401 57.4897 259.519 54.6072C258.964 53.756 258.395 52.9178 257.846 52.0597C257.534 51.5713 257.23 51.0748 256.935 50.5695C256.725 50.2081 255.81 48.9485 256.142 48.1917C256.311 47.8045 258.3 45.6456 259.128 45.0526Z" fill="#2C2C2C"/>
<path fill-rule="evenodd" clip-rule="evenodd" d="M260.353 44.2305C260.042 44.3556 260.193 43.5807 260.494 43.308C261.887 42.0447 267.214 41.5863 271.849 42.7403C274.954 43.5134 278.565 45.4377 281.045 47.9114C283.281 50.1415 284.819 53.7165 285.61 57.1705C286.442 60.7972 286.567 64.5783 286.104 68.2973C286.003 69.1143 285.784 69.8928 285.662 70.6924C285.525 71.5928 285.455 72.4598 285.21 73.3358C285.06 73.8721 284.806 74.3979 284.678 74.9373C284.532 75.5528 284.621 76.1222 284.728 76.7482C284.901 77.7686 285.116 78.7868 285.421 79.7613C285.88 81.2247 286.436 82.5952 286.785 84.1137C287.25 86.1343 289.192 92.7094 287.772 94.5016H260.756C261.436 92.2759 263.478 89.6564 263.891 87.2738C264.135 85.8703 264.251 82.8051 264.276 82.6937C264.885 77.66 266.074 75.2562 266.818 74.3838C267.563 73.5115 268.555 73.2432 268.606 72.4865C268.817 69.3568 267.779 66.3581 267.018 63.4372C266.111 59.956 265.447 56.3884 264.512 52.919C264.098 51.3826 261.965 43.5807 260.353 44.2305Z" fill="#8991DC"/>
<path fill-rule="evenodd" clip-rule="evenodd" d="M269.825 47.831C270.844 51.7081 271.063 53.7777 270.844 59.0752H271.344C272.277 54.076 271.446 49.3697 270.453 47.831H269.825ZM283.493 57.8368C281.595 63.3621 280.729 66.6249 275.427 71.0961L275.837 71.4399C281.1 67.8623 282.632 63.5949 283.892 58.067L283.493 57.8368ZM275.692 52.2141C274.83 60.0567 274.578 64.5364 270.086 73.1151L270.564 73.2903C275.187 65.8209 275.92 59.7244 276.139 52.2571L275.692 52.2141ZM280.655 75.5104L280.246 74.9142C274.666 77.0103 275.288 81.338 268.26 85.7206L268.847 86.1474C275.001 83.1015 276.439 76.5685 280.655 75.5104Z" fill="black" fill-opacity="0.2"/>
<path fill-rule="evenodd" clip-rule="evenodd" d="M303.332 181.574H258.465L252.585 267.949H319.374L303.332 181.574Z" fill="#C5CFD6"/>
<path fill-rule="evenodd" clip-rule="evenodd" d="M303.332 181.574H289.533L281.273 267.949H319.374L303.332 181.574Z" fill="black" fill-opacity="0.1"/>
<path fill-rule="evenodd" clip-rule="evenodd" d="M207.312 166.776C202.529 163.33 194.503 167.757 194.508 172.684C194.525 187.427 205.742 256.909 206.328 261.302C206.914 265.694 213.188 266.854 213.553 261.316C214.134 252.504 215.215 221.998 214.134 207.878C213.688 202.05 213.207 196.499 212.734 191.547C218.621 204.296 227.724 222.55 240.045 246.309L246.733 242.644C241.481 221.889 237.174 207.236 233.813 198.686C228.058 184.046 222.661 171.509 220.39 167.093C216.817 160.147 210.598 162.571 207.312 166.776Z" fill="#B28B67"/>
<path fill-rule="evenodd" clip-rule="evenodd" d="M246.255 231.118L223.299 165.892C217.799 155.281 202.38 168.051 204.255 174.205C208.513 188.177 230.168 233.409 231.436 237.571L246.255 231.118Z" fill="#1F28CF"/>
<path fill-rule="evenodd" clip-rule="evenodd" d="M247.53 238.531C248.96 239.943 249.89 241.096 250.321 241.99C250.844 243.078 251.458 244.77 252.16 247.066C251.108 247.795 241.652 254.343 223.792 266.711C221.648 264.298 221.313 262.425 222.79 261.092C224.266 259.759 225.484 258.635 226.444 257.72L236.235 241.54C236.424 241.228 236.787 241.159 237.047 241.385C237.051 241.389 237.055 241.393 237.06 241.397L239.094 243.276C240.961 243.08 242.354 242.664 243.273 242.028C244.02 241.511 244.877 240.435 245.845 238.8C246.216 238.172 246.941 238.025 247.464 238.47C247.487 238.489 247.509 238.51 247.53 238.531Z" fill="#E4E4E4"/>
<path fill-rule="evenodd" clip-rule="evenodd" d="M215.022 257.78C215.672 259.861 215.997 261.417 215.997 262.45C215.997 263.706 215.822 265.539 215.473 267.949C214.258 267.949 203.34 267.949 182.717 267.949C181.865 264.574 182.357 262.752 184.191 262.482C186.025 262.213 187.548 261.97 188.761 261.753L203.986 253.613C204.279 253.456 204.623 253.614 204.753 253.965C204.756 253.971 204.758 253.977 204.76 253.983L205.738 256.831C207.436 257.781 208.816 258.256 209.877 258.256C210.74 258.256 211.931 257.838 213.45 257.003C214.034 256.682 214.723 256.989 214.99 257.689C215.002 257.719 215.012 257.749 215.022 257.78Z" fill="#E4E4E4"/>
<path fill-rule="evenodd" clip-rule="evenodd" d="M192.899 177.696C192.899 196.202 200.227 239.369 200.231 243.444L215.997 243.458C213.689 204.941 212.871 185.474 213.542 185.059C214.549 184.437 254.806 189.88 266.88 189.88C284.291 189.88 291.494 176.712 292.078 152.317H257.588C250.566 153.219 213.936 162.08 200.332 165.126C194.508 166.43 192.899 172.598 192.899 177.696Z" fill="#2B44FF"/>
<path fill-rule="evenodd" clip-rule="evenodd" d="M228.487 143.582L212.035 162.832C207.248 165.281 203.326 167.986 200.269 170.945C199.581 171.94 198.832 173.846 202.068 172.993C205.303 172.14 208.737 171.417 209.345 172.679C209.953 173.941 208.162 175.875 209.286 177.526C210.035 178.627 212.554 175.125 216.844 167.02L233.952 154.923L228.487 143.582ZM308.938 126.161L296.221 126.218C305.907 163.857 311.048 183.564 311.646 185.339C312.989 189.333 310.146 195.417 308.929 198.686C312.89 200.812 312.468 192.939 317.465 195.728C322.026 198.272 325.495 202.884 330.764 198.984C331.412 198.505 332.122 196.699 330.406 195.289C326.133 191.775 319.975 185.624 319.143 183.599C318.009 180.838 314.607 161.692 308.938 126.161Z" fill="#B28B67"/>
<path fill-rule="evenodd" clip-rule="evenodd" d="M270.186 82.891L265.164 81.8579C257.253 115.399 216.605 138.262 214.11 150.801C213.195 155.399 215.954 157.724 214.529 159.124L221.056 164.856C222.162 163.309 224.521 166.138 229.447 164.159C234.373 162.18 270.186 122.607 270.186 82.891Z" fill="#DB2721"/>
<path fill-rule="evenodd" clip-rule="evenodd" d="M261.738 87.3503C262.317 131.757 240.914 143.084 245.682 160.898C249.618 175.608 287.3 191.422 293.82 177.002C296.46 171.166 297.657 164.106 297.793 156.431C299.46 162.328 300.778 167.404 301.747 171.66C303.42 179.001 309.904 180.168 309.904 182.997L318.447 180.168C317.868 176.326 321.895 174.455 320.815 165.871C315.977 127.407 302.977 99.5268 281.816 82.2285L281.597 78.4735C281.508 76.9384 280.398 75.781 279.118 75.8884L263.475 77.2003C262.195 77.3077 261.23 78.6391 261.32 80.1742L261.738 87.3503Z" fill="#FF4133"/>
<path fill-rule="evenodd" clip-rule="evenodd" d="M58.1911 41.4655C55.9129 38.4745 54.371 34.8089 54.6287 30.7016C55.371 18.8672 70.0996 21.4706 72.9646 27.4436C75.8296 33.4166 75.4891 48.5676 71.7864 49.6351C70.3097 50.0609 67.164 49.018 63.9624 46.8596L65.972 62.7614H54.1062L58.1911 41.4655Z" fill="#B28B67"/>
<path fill-rule="evenodd" clip-rule="evenodd" d="M64.5555 32.0086C65.0097 39.0854 66.2112 42.6238 68.16 42.6238C71.0833 42.6238 73.5635 40.5481 74.8462 40.5481C75.7813 40.5481 75.5725 41.8568 74.9527 42.8272C74.4414 43.6278 71.9511 44.3995 71.9511 45.6406C71.9511 46.8818 73.9186 45.9216 73.9186 46.6577C73.9186 47.8753 74.2644 50.1647 72.375 50.1647C70.4629 50.1647 64.9804 49.3853 64.0409 46.211C63.4345 44.1624 63.0425 39.9174 62.8647 33.4759C62.7487 33.4605 62.6307 33.4525 62.511 33.4525C60.8726 33.4525 59.5445 34.938 59.5445 36.7705C59.5445 37.7008 59.8868 38.5416 60.4382 39.1441C59.7518 40.2278 58.9825 41.3598 58.101 42.5279C54.7895 40.3056 52.3322 33.8003 55.5697 27.5511C56.4646 24.4897 58.4905 22.8545 60.883 22.0952C62.8212 21.1884 64.8331 21.0861 66.5315 21.6298C69.8608 21.9492 72.8337 23.0847 73.6763 23.759C73.6763 27.2845 73.0655 28.3305 67.849 28.2383C66.5672 28.9954 65.5818 30.2993 64.5555 32.0086Z" fill="#191847"/>
<path fill-rule="evenodd" clip-rule="evenodd" d="M50.1507 108.66L68.0755 179.016L81.1536 230.873H90.6922L76.7949 108.66H50.1507Z" fill="#191847"/>
<path fill-rule="evenodd" clip-rule="evenodd" d="M45.3571 108.66C44.9425 144.923 43.5288 164.701 43.0934 167.996C42.6581 171.29 36.076 192.249 23.3471 230.873H33.2285C49.4334 193.82 58.4794 172.861 60.3664 167.996C62.2535 163.13 68.0772 143.352 76.8488 108.66H45.3571Z" fill="#2F3676"/>
<path fill-rule="evenodd" clip-rule="evenodd" d="M22.4639 240.827L22.9583 229.214H33.3409C38.264 233.085 44.6913 236.218 52.6228 238.615V240.827H33.8353L27.408 239.721V240.827H22.4639Z" fill="#191847"/>
<path fill-rule="evenodd" clip-rule="evenodd" d="M79.8152 240.827L80.3096 229.214H90.6922C95.6153 233.085 102.043 236.218 109.974 238.615V240.827H91.1866L84.7593 239.721V240.827H79.8152Z" fill="#191847"/>
<path fill-rule="evenodd" clip-rule="evenodd" d="M91.8585 99.5966L106.783 113.749C110.969 115.37 114.434 117.251 117.177 119.392C117.81 120.134 118.54 121.594 115.751 121.133C112.961 120.673 110.009 120.328 109.555 121.368C109.101 122.408 110.718 123.82 109.846 125.203C109.264 126.124 106.951 123.518 102.907 117.385L87.7795 108.94L91.8585 99.5966ZM24.277 93.4726L33.0338 94.8951C23.6341 117.706 18.5948 129.77 17.9159 131.086C16.3885 134.048 18.1849 139.208 18.8871 141.939C15.3381 143.086 16.4715 136.952 11.984 138.482C7.88795 139.878 4.50784 143.044 0.451099 139.28C-0.0476539 138.817 -0.467792 137.304 1.11747 136.422C5.06695 134.226 10.8657 130.206 11.7671 128.725C12.9963 126.705 17.1663 114.954 24.277 93.4726Z" fill="#B28B67"/>
<path fill-rule="evenodd" clip-rule="evenodd" d="M60.8769 53.5441L66.303 51.537C73.6636 72.1031 84.6409 92.0019 102.982 108.81L98.4463 117.562C82.3273 106.941 67.0687 98.6912 60.8769 82.7548C58.7988 77.4062 60.7074 59.9394 60.8769 53.5441Z" fill="#C5CFD6"/>
<path fill-rule="evenodd" clip-rule="evenodd" d="M42.2402 111.425C57.7836 113.268 70.0179 113.268 78.9432 111.425C80.049 111.197 80.2234 109.126 79.7106 107.721C71.7249 85.8349 66.2488 66.7383 66.2488 51.537C64.7835 52.3633 62.2192 52.4871 58.5557 51.9085C48.7101 67.5739 44.1845 85.5483 42.2402 111.425Z" fill="#323337"/>
<path fill-rule="evenodd" clip-rule="evenodd" d="M56.1081 50.5954H60.2112C61.1665 56.8802 64.1798 141.985 73.4822 169.825H23.1488C24.24 144.321 32.8479 113.685 41.5677 88.049C33.8573 95.9409 27.1369 109.313 21.4068 128.166L11.9788 125.459C18.9888 91.6727 33.4014 66.8397 55.2166 50.9599C55.2638 50.8378 55.3109 50.7163 55.3577 50.5954H55.7208C55.8544 50.4995 55.9883 50.4039 56.1225 50.3086L56.1081 50.5954Z" fill="#DDE3E9"/>
<path fill-rule="evenodd" clip-rule="evenodd" d="M34.2857 146L56.1691 211.49L66.4619 260.661H76.7928L66.4803 146H34.2857Z" fill="#997659"/>
<path fill-rule="evenodd" clip-rule="evenodd" d="M24.4511 146C25.9781 180.022 25.3758 198.578 25.0341 201.669C24.6924 204.76 22.7522 225.462 9.53156 261.699H20.2766C37.7852 226.936 43.8973 206.234 45.9054 201.669C47.9135 197.104 53.8443 178.548 62.5031 146H24.4511Z" fill="#B28B67"/>
<path fill-rule="evenodd" clip-rule="evenodd" d="M33.8159 146C39.5081 168.535 49.3532 204.507 63.3512 253.916H78.4613C79.5773 203.203 74.8297 169.825 66.608 146H33.8159Z" fill="#69A1AC"/>
<path fill-rule="evenodd" clip-rule="evenodd" d="M24.3748 146C25.8702 180.022 21.9947 213.54 9.98965 254.446H26.1113C43.6521 220.202 56.2242 186.849 64.8163 146H24.3748Z" fill="#89C5CC"/>
<path fill-rule="evenodd" clip-rule="evenodd" d="M8 268.444L8.59288 260.142C12.0641 261.024 16.4118 260.678 21.6361 259.105C27.2535 262.56 34.3251 264.92 42.8508 266.184C43.5013 266.28 43.9386 266.816 43.8276 267.381C43.8204 267.418 43.811 267.454 43.7993 267.49L42.9797 270H9.18575L8 268.444Z" fill="#191847"/>
<path fill-rule="evenodd" clip-rule="evenodd" d="M64.1558 268.444L64.7487 260.142C68.2199 261.024 72.5677 260.678 77.792 259.105C83.4094 262.56 90.481 264.92 99.0067 266.184C99.6572 266.28 100.094 266.816 99.9835 267.381C99.9763 267.418 99.9668 267.454 99.9552 267.49L99.1355 270H65.3416L64.1558 268.444Z" fill="#191847"/>
<path fill-rule="evenodd" clip-rule="evenodd" d="M46.3596 39.5173C43.8894 35.6508 42.2175 30.9124 42.4969 25.6028C43.3019 10.3046 59.2718 13.67 62.3782 21.3912C65.4847 29.1125 65.1156 48.6981 61.1007 50.0781C59.4996 50.6284 56.0888 49.2803 52.6173 46.4901L54.7963 67.0463H41.9304L46.3596 39.5173Z" fill="#B28B67"/>
<path fill-rule="evenodd" clip-rule="evenodd" d="M56.7039 22.5111C54.9579 23.8134 53.7154 26.2537 52.2197 29.4547C51.8554 29.2638 51.4587 29.1589 51.0436 29.1589C49.2672 29.1589 47.8271 31.0793 47.8271 33.4481C47.8271 34.6506 48.1982 35.7376 48.7961 36.5164C48.0518 37.9172 47.2177 39.3806 46.262 40.8906C42.6952 38.0371 40.0424 29.7204 43.4479 21.6917C46.378 5.60974 62.9812 15.5917 66.1755 12.8794C66.8737 18.7152 64.6216 23.4208 56.7039 22.5111Z" fill="#191847"/>
<path fill-rule="evenodd" clip-rule="evenodd" d="M71.7314 77.8203L93.0157 64.3209C96.5552 59.4536 100.043 55.6735 103.478 52.9806C104.527 52.4731 106.363 52.1659 104.646 55.6943C102.93 59.2228 101.261 63.0235 102.136 64.1105C103.01 65.1976 105.191 63.679 106.234 65.4852C106.93 66.6892 103.204 68.5913 95.057 71.1914L79.5914 87.5895L71.7314 77.8203ZM105.067 89.2101L114.416 83.2625C115.728 77.482 117.296 74.5737 119.12 74.5375C120.522 73.7823 118.081 81.0864 120.738 80.453C123.395 79.8196 129.88 74.2346 130.997 75.3685C132.65 77.0462 131.176 82.1975 129.439 84.76C126.194 89.5493 123.506 91.1871 116.864 93.3318C113.391 94.4532 109.636 96.7009 105.599 100.075L105.067 89.2101Z" fill="#997659"/>
<path fill-rule="evenodd" clip-rule="evenodd" d="M61.3658 74.8131C68.8209 74.7219 78.7624 72.8985 89.37 65.1013L93.5358 75.8593C86.2189 84.2681 75.9308 91.1769 66.9349 90.8844C59.8458 90.6538 56.2226 80.7239 61.3658 74.8131Z" fill="#2026A2"/>
<path fill-rule="evenodd" clip-rule="evenodd" d="M71.4041 92.0657C79.3187 94.3514 92.5909 91.6559 111.221 83.9791C115.842 95.0497 117.978 102.942 117.629 107.657C101.648 117.324 87.9499 121.634 76.6648 121.919C77.0234 129.673 76.2084 137.051 73.4704 143.793C67.8416 157.653 34.882 144.817 23.7999 147.343C16.86 121.244 30.2785 110.637 30.2893 93.937C30.3011 75.6487 42.982 47.4987 44.8478 47.4987H61.8623C62.8011 61.4657 67.5263 76.8586 71.4041 92.0657Z" fill="#1F28CF"/>
</svg>
