<svg width="341" height="200" viewBox="0 0 341 200" fill="none" xmlns="http://www.w3.org/2000/svg">
<path fill-rule="evenodd" clip-rule="evenodd" d="M99.2751 88.5781L119.066 147.891L132.938 191.608H140.848L121.779 88.5781H99.2751Z" fill="#1F28CF"/>
<path fill-rule="evenodd" clip-rule="evenodd" d="M94.3838 88.5781C94.1687 108.93 94.3242 136.33 93.823 137.598C93.4888 138.444 83.0951 148.08 62.642 166.507L66.7189 174.359C91.0016 156.623 103.764 146.573 105.005 144.21C106.867 140.665 116.223 108.048 121.09 88.5781H94.3838Z" fill="#2B44FF"/>
<path fill-rule="evenodd" clip-rule="evenodd" d="M55.4693 171.791L62.3554 165.855L67.9115 173.355C68.3389 179.009 69.9916 185.349 72.8697 192.377L71.6085 193.576L61.5546 180.005L58.7457 174.763L58.1151 175.362L55.4693 171.791Z" fill="#191847"/>
<path fill-rule="evenodd" clip-rule="evenodd" d="M132.204 200L132.615 190.21H141.259C145.358 193.473 150.709 196.115 157.312 198.135V200H141.671L136.32 199.068V200H132.204Z" fill="#191847"/>
<path fill-rule="evenodd" clip-rule="evenodd" d="M109.544 17.7744C107.647 15.2528 106.363 12.1626 106.578 8.69992C107.196 -1.27699 119.458 0.917805 121.843 5.95329C124.228 10.9888 123.945 23.7617 120.862 24.6617C119.633 25.0206 117.014 24.1414 114.349 22.3218L116.022 35.7277H106.143L109.544 17.7744Z" fill="#B28B67"/>
<path fill-rule="evenodd" clip-rule="evenodd" d="M117.486 6.68358C116.146 7.53291 115.192 9.1244 114.043 11.212C113.764 11.0874 113.459 11.0191 113.14 11.0191C111.776 11.0191 110.671 12.2714 110.671 13.8163C110.671 14.6005 110.955 15.3094 111.415 15.8173C110.843 16.7309 110.203 17.6852 109.469 18.67C106.73 16.809 104.693 11.3852 107.308 6.14924C109.558 -4.33879 122.306 2.17102 124.759 0.402169C125.295 4.20809 123.566 7.27689 117.486 6.68358Z" fill="#191847"/>
<path fill-rule="evenodd" clip-rule="evenodd" d="M140.477 28.7016L156.079 23.3969C158.989 20.8308 161.735 18.9545 164.315 17.7681C165.065 17.6082 166.307 17.7011 164.755 19.6956C163.202 21.6901 161.649 23.8671 162.092 24.7034C162.535 25.5397 164.15 24.9093 164.618 26.2341C164.929 27.1172 162.254 27.7498 156.591 28.1317L144.461 36.2175L140.477 28.7016ZM139.099 59.8565L152.228 70.7766C155.789 71.8649 158.764 73.219 161.154 74.8388C161.718 75.4213 162.4 76.6009 160.059 76.397C157.719 76.1931 155.249 76.0979 154.926 77.0022C154.603 77.9064 156.019 78.9877 155.367 80.2078C154.931 81.0211 152.875 78.9817 149.198 74.0894L136.196 67.9828L139.099 59.8565Z" fill="#B28B67"/>
<path fill-rule="evenodd" clip-rule="evenodd" d="M118.705 30.4479C125.855 45.548 136.194 57.1232 151.183 69.1561L145.508 76.4041C128.772 69.3598 119.939 65.1097 115.602 50.8433C114.513 47.2627 113.752 35.8484 113.099 29.8428L118.705 30.4479Z" fill="#2026A2"/>
<path fill-rule="evenodd" clip-rule="evenodd" d="M98.7171 80.7571H130.411C123.232 55.9578 119.564 38.937 119.409 29.6949C119.401 29.2237 118.633 28.3935 118.293 28.5022C115.807 29.2973 113.147 29 110.313 27.6103C102.799 41.2972 100.201 58.1485 98.7171 80.7571Z" fill="#FF6464"/>
<path fill-rule="evenodd" clip-rule="evenodd" d="M113.017 27.6324C122.102 27.7166 136.842 29.5957 153.841 23.4145L155.519 32.9126C142.671 42.2715 129.662 49.5213 118.263 48.4917C123.213 72.5413 122.985 92.2284 112.056 92.2284C106.837 92.2284 101.204 92.2284 95.1572 92.2284C92.4732 71.7986 99.5272 43.4721 106.067 29.1844C106.317 28.6388 106.848 27.6103 108.101 27.6103C109.192 27.6103 110.829 27.6103 113.011 27.6103C113.013 27.6176 113.015 27.625 113.017 27.6324Z" fill="#1F28CF"/>
<path fill-rule="evenodd" clip-rule="evenodd" d="M2.03408 130.286C1.05386 129.94 -0.252875 130.341 0.292238 131.253C0.876145 132.23 3.03502 132.242 4.25425 132.223C4.13223 132.218 3.73926 131.322 3.60473 131.187C3.20798 130.788 2.63669 130.498 2.03408 130.286ZM13.328 147.803C13.3481 147.817 13.5753 147.953 13.328 147.803V147.803ZM1.08981 134.705C0.51619 135.016 0.488831 135.566 0.957403 135.938C1.51536 136.381 2.53418 136.365 3.29469 136.322C3.63871 136.302 5.47561 136.198 5.0402 135.984C5.0737 135.993 5.14364 136.015 5.2185 136.045C5.25878 136.149 5.30108 136.253 5.34517 136.357C5.33436 136.361 5.32516 136.366 5.31361 136.371C5.32611 136.367 5.33489 136.363 5.3459 136.359C5.78764 137.395 6.41642 138.382 7.23975 139.305C6.93171 139.219 6.61265 139.154 6.28905 139.125C5.33076 139.039 3.31482 139.567 4.38674 140.473C5.41456 141.342 7.0147 140.41 8.18119 140.282C9.31265 141.403 10.5601 142.478 11.8675 143.516C11.7874 143.534 11.7171 143.571 11.6768 143.629C11.1523 143.44 10.6058 143.17 10.1204 143.097C9.41995 142.991 7.98368 142.927 7.45429 143.372C6.80317 143.92 7.50113 144.364 8.2704 144.469C9.38587 144.622 10.8461 144.235 11.9194 143.973C12.0422 143.989 12.1762 143.963 12.2563 143.893C12.28 143.888 12.3037 143.882 12.3268 143.877C13.6507 144.911 15.0253 145.91 16.3915 146.888C16.3769 146.887 16.3624 146.887 16.3472 146.886C15.9908 146.72 15.6086 146.584 15.1942 146.513C14.2357 146.347 13.108 146.346 12.3301 146.838C11.5553 147.329 11.2808 148.186 12.0824 148.737C13.6869 149.839 16.0508 147.326 16.8602 147.221C18.2485 148.204 19.7166 149.123 21.2077 150.023C21.0384 149.986 20.8647 149.959 20.6852 149.947C19.223 149.848 15.791 151.12 17.5855 152.373C19.1492 153.464 20.9592 151.364 22.2194 150.629C23.6245 151.468 25.0373 152.301 26.4104 153.166C25.6615 153.025 24.9377 153.004 24.1349 153.177C23.3042 153.355 21.9637 153.8 22.4889 154.597C23.023 155.407 24.6327 155.038 25.471 154.781C25.9283 154.641 26.8451 154.167 27.6501 153.968C29.8412 155.437 31.7391 157.055 33.1759 158.961C34.0729 160.151 34.7536 161.422 35.2327 162.729C35.5386 163.563 36.1411 164.964 36.0205 166.049C36.5955 163.876 35.5558 161.267 34.4358 159.325C33.406 157.539 31.8649 155.971 30.0597 154.559C30.5127 153.592 34.3256 152.197 32.0462 151.298C30.8358 150.822 29.596 151.611 29.3314 152.446C29.1497 153.02 29.4265 153.741 29.7204 154.298C29.1525 153.868 28.5622 153.452 27.9539 153.049C27.1132 152.493 26.2524 151.953 25.3833 151.419C26.8154 150.464 28.1707 147.733 26.2506 147.286C23.4152 146.629 24.7804 150.354 24.9782 151.052C25.0344 151.054 25.0782 151.042 25.1104 151.017C25.0944 151.081 25.0759 151.149 25.0535 151.218C23.3902 150.202 21.7021 149.207 20.0698 148.167C20.2168 148.09 20.4506 147.795 20.6344 147.638C21.0491 147.284 21.4459 146.914 21.7358 146.5C22.1939 145.846 22.6357 144.802 21.4215 144.417C20.1009 143.998 19.4734 145.178 19.4642 145.883C19.4579 146.37 19.6447 146.832 19.742 147.309C19.7724 147.458 19.6553 148.129 19.9409 147.841C19.9274 147.947 19.9255 148.024 19.9321 148.079C19.6391 147.891 19.3483 147.702 19.0593 147.511C19.0727 147.486 19.0826 147.46 19.0849 147.43C19.1003 147.22 18.8029 147.139 18.5943 147.2C18.213 146.943 17.8354 146.683 17.4646 146.417C16.6786 145.854 15.8812 145.275 15.0894 144.684C15.2612 144.579 15.1928 144.434 15.3535 144.322C15.5139 144.211 15.8299 144.15 16.0185 144.047C16.4929 143.787 16.8863 143.409 17.1708 143.037C17.6406 142.422 18.2476 141.133 16.8754 140.84C15.461 140.537 14.743 141.779 14.6521 142.555C14.6344 142.705 14.7929 144.06 14.9143 144.552C13.4491 143.453 12.008 142.313 10.7024 141.153C11.0983 141.15 12.2206 140.574 12.4475 140.417C13.0011 140.034 13.8812 139.187 12.9106 138.739C12.0476 138.341 10.9838 138.917 10.6148 139.477C10.5542 139.569 10.3403 140.426 10.3236 140.811C9.78319 140.319 9.26771 139.824 8.78812 139.328C8.46829 138.998 8.16941 138.659 7.88977 138.313C7.95709 138.286 8.02042 138.239 8.08023 138.18C9.51955 138.007 11.3546 136.412 9.66398 135.857C8.85905 135.593 7.98611 136.138 7.59181 136.584C7.51103 136.675 7.38019 137.134 7.27371 137.495C6.4692 136.349 5.85441 135.136 5.38649 133.892C5.51179 133.87 5.6179 133.802 5.63189 133.685C6.33069 133.402 6.88251 133.166 7.37032 132.622C7.67338 132.285 8.21915 131.513 7.32869 131.325C6.16988 131.081 5.44196 132.338 5.34716 132.957C5.33612 133.029 5.33652 133.238 5.34034 133.429C5.30011 133.425 5.25944 133.426 5.21956 133.431C4.95341 132.661 4.74097 131.88 4.57202 131.099C5.20451 130.954 5.31389 128.595 4.89275 128.26C3.95145 127.508 3.28736 128.594 3.33762 129.168C3.39698 129.845 3.82898 130.461 4.3434 131.007C4.39859 131.065 4.38284 131.062 4.39714 130.982C4.40505 131.022 4.42383 131.051 4.45168 131.072C4.42512 131.429 4.37339 131.794 4.39824 132.109C4.46947 133.012 4.6176 133.92 4.83268 134.811C4.88499 135.028 4.94491 135.243 5.01208 135.456C4.50371 135.149 3.81829 134.876 3.55009 134.79C2.85399 134.569 1.78122 134.329 1.08981 134.705ZM36.1021 166.052C36.0698 166.367 35.9898 166.656 35.8404 166.893C35.9524 166.623 36.0384 166.341 36.1021 166.052Z" fill="#FF6464"/>
<path fill-rule="evenodd" clip-rule="evenodd" d="M21.1014 151.613C23.8238 151.513 27.1905 152.641 27.481 154.743C27.692 156.27 27.6266 157.792 27.9531 159.316C28.2142 160.535 28.7664 161.704 29.5195 162.814C30.2437 163.881 31.7459 164.79 32.1366 165.93C32.3856 166.656 32.2462 167.678 31.9028 168.389C31.4851 169.253 31.7071 169.184 32.5392 169.909C34.1699 171.33 35.6382 172.787 36.6765 174.484C38.1721 176.927 39.1526 179.784 38.5976 182.459C38.5269 182.799 38.4432 184.018 37.7844 184.103C37.0487 184.199 37.3927 183.501 37.432 183.276C37.6823 181.839 37.9047 180.583 37.6028 179.123C36.4376 173.492 30.7484 169.782 27.0439 165.003C26.8403 164.756 26.4104 164.169 26.1114 163.782C25.6395 163.171 25.1651 162.008 24.5262 161.554C23.3231 160.7 24.4292 162.417 24.6637 162.745C24.9601 163.159 25.2862 163.6 25.5899 163.963C26.9798 165.647 28.5311 167.485 29.9666 169.221C23.7585 170.225 19.3863 164.925 17.7203 161.441C16.3477 158.571 14.7054 151.859 21.1014 151.613Z" fill="#47E1FF"/>
<path fill-rule="evenodd" clip-rule="evenodd" d="M57.5892 146.283C53.0382 146.539 50.1166 148.671 48.7566 151.654C48.0236 153.261 47.9395 154.912 47.5322 156.564C46.9194 159.049 45.601 160.932 43.0243 162.703C42.2263 163.251 41.6382 163.814 41.2201 164.416C40.3902 165.018 39.6677 165.698 39.137 166.53C38.459 167.593 38.2671 168.868 39.0499 169.927C39.2604 170.212 39.7854 170.783 40.3296 171.043C38.2923 174.124 37.1721 177.499 37.2983 180.869C37.3746 182.903 37.5145 184.938 37.6777 186.97C37.7216 187.516 37.9718 188.417 38.3476 187.502C38.6916 186.665 38.2602 185.351 38.2203 184.477C38.0261 180.217 37.8601 176.345 40.3293 172.365C40.5882 171.948 40.8627 171.535 41.1487 171.124C41.1654 171.117 41.181 171.109 41.1968 171.101C41.2077 171.107 41.2176 171.113 41.2285 171.119C41.2468 171.096 41.2717 171.068 41.3009 171.038C41.3829 170.978 41.4545 170.902 41.5226 170.817C41.7416 170.601 41.9895 170.348 41.9908 170.21C41.9908 170.209 41.99 170.207 41.99 170.206C43.5186 168.434 45.2693 166.76 47.0576 165.118C47.0442 165.13 48.9974 163.242 48.6954 164.286C48.5498 164.79 47.1131 165.748 46.5329 166.281C45.2494 167.467 43.7421 168.97 42.4896 170.423C42.321 170.491 42.0829 170.829 41.9107 171.081C41.8156 171.208 41.7269 171.337 41.6397 171.448C46.0778 172.49 49.5302 170.392 51.8843 167.953C51.8871 167.95 51.8897 167.947 51.8923 167.944C52.6087 167.27 53.3426 166.601 54.2594 166.068C55.7889 165.179 57.427 165.022 59.2304 164.584C64.1485 163.391 66.2395 158.865 66.9036 155.507C67.6528 151.719 63.9878 145.909 57.5892 146.283Z" fill="#161F20"/>
<path fill-rule="evenodd" clip-rule="evenodd" d="M48.5995 135.673C43.9286 139.125 41.6721 143.913 39.8853 148.414C37.8896 153.441 36.5715 158.546 36.5209 163.772C36.4877 167.206 36.3561 170.662 36.6384 174.092C36.7386 175.31 36.9096 176.53 37.1815 177.735C37.2039 177.834 37.8122 180.525 38.3943 179.898C38.7254 179.541 37.7707 177.107 37.6986 176.701C37.2928 174.417 37.1985 172.117 37.2183 169.816C37.2508 166.028 37.0936 162.26 37.6342 158.486C37.7148 157.923 37.7786 157.331 37.9671 156.78C38.1672 156.194 37.9123 156.45 38.5642 156.218C39.1975 155.992 39.9802 156.024 40.6374 155.741C43.2441 154.619 44.5776 151.736 45.6154 149.844C46.8025 147.681 47.524 145.374 48.1002 143.098C48.5233 141.425 48.8258 139.763 48.997 138.069C49.0509 137.535 49.0542 136.976 49.2019 136.451C49.2417 136.31 49.4415 136.059 49.4342 135.934C49.4189 135.668 49.1933 135.512 49.1748 135.289C48.9793 135.414 48.7873 135.542 48.5995 135.673Z" fill="#161F20"/>
<path fill-rule="evenodd" clip-rule="evenodd" d="M23.131 181.664C23.131 187.372 29.6481 192 37.6875 192C45.7269 192 52.2441 187.372 52.2441 181.664" fill="#161F20"/>
<path fill-rule="evenodd" clip-rule="evenodd" d="M38.8555 181.697H38.0863C38.1397 181.011 38.2102 180.327 38.3715 179.65C38.9885 177.058 40.9178 173.252 45.1493 172.831C45.3054 172.816 45.8796 172.813 46.5752 172.842C46.9049 172.711 47.2741 172.632 47.6632 172.614C51.2659 172.425 55.2892 174.489 57.027 176.637C58.4279 178.368 58.1919 180.642 57.3266 182.482C56.7472 183.713 55.4826 185.469 53.3736 185.487C50.7351 185.508 50.6079 183.192 50.5569 181.839C50.4891 180.039 50.1688 178.471 48.1717 177.244C47.7062 176.959 47.1974 176.707 46.7273 176.425C45.9911 175.984 45.1775 175.533 45.0826 174.803C44.9517 173.796 45.752 173.615 46.974 173.802C47.1823 173.834 49.2807 174.503 48.97 173.974C48.8751 173.813 48.5287 173.685 48.0914 173.589C46.9599 173.501 45.6105 173.4 45.2225 173.461C41.0359 174.113 39.4058 178.231 38.9729 180.847C38.9262 181.13 38.8884 181.413 38.8555 181.697Z" fill="#47E1FF"/>
<path d="M255.77 198.399C280.498 198.399 300.544 196.46 300.544 194.069C300.544 191.678 280.498 189.739 255.77 189.739C231.042 189.739 210.996 191.678 210.996 194.069C210.996 196.46 231.042 198.399 255.77 198.399Z" fill="#F6E6F1"/>
<path d="M256.67 189.492C256.825 189.492 248.645 193.686 258.053 198.392C258.053 198.392 224.426 198.417 211.436 194.68C211.436 194.68 204.214 190.263 256.67 189.492Z" fill="#E9C1D9"/>
<path d="M206.446 140.434L196.706 132.032L211.379 81.6012L219.396 104.146L206.446 140.434Z" fill="black"/>
<path d="M232.544 139.105L218.143 141.642L215.812 96.9488L225.23 94.4553L232.544 139.105Z" fill="black"/>
<path d="M226.309 177.582L227.494 192.114L235.591 192.087L242.354 191.278L232.603 183.178L231.907 176.791L226.309 177.582Z" fill="black"/>
<path d="M229.667 181.585L231.005 180.992L231.992 184.993L239.834 190.184H231.005L229.667 181.585Z" fill="#757575"/>
<path d="M198.74 133.785L196.291 140.359L187.729 137.774L186.226 142.334L198.367 149.996L204.161 138.025L198.74 133.785Z" fill="#F6E6F1"/>
<path d="M222.714 140.837L226.756 178.374L231.448 177.478L229.846 139.579L222.714 140.837Z" fill="#F6E6F1"/>
<path d="M189.123 136.786L180.712 131.117L176.652 142.372L173.683 152.169L182.948 142.707L186.731 144.955L189.123 136.786Z" fill="black"/>
<path d="M185.281 139.433L184.927 141.59L182.277 140.943L175.539 149.222L179.984 136.963L185.281 139.433Z" fill="#757575"/>
<path d="M218.805 102.173L225.355 100.434L230.796 136.249L221.111 138.198L218.805 102.173Z" fill="#757575"/>
<path d="M215.812 110.891L205.979 137.578L198.783 131.117L215.812 110.891Z" fill="#757575"/>
<path d="M189.123 139.038L196.706 141.891L198.783 135.182L203.058 138.537L197.275 146.55L188.724 141.642L189.123 139.038Z" fill="#E9C1D9"/>
<path d="M223.357 141.642H227.355L229.667 176.001L227.416 176.791L223.357 141.642Z" fill="#E9C1D9"/>
<path d="M211.33 37.2887C211.33 37.2887 211.48 42.3755 210.872 45.7985C210.872 45.7985 214.317 47.8781 217.279 45.3285C217.279 45.3285 216.381 43.1782 216.391 41.2899C216.401 39.4016 216.448 36.7023 216.448 36.7023L211.33 37.2887Z" fill="#F6E6F1"/>
<path d="M208.045 26.3874C208.045 26.3874 208.576 32.5202 211.043 36.5962C211.043 36.5962 212.585 39.8591 214.131 40.2293C214.897 39.819 215.556 39.0095 216.003 37.9293C216.717 36.1491 217.868 33.8178 217.868 33.8178C217.868 33.8178 218.933 30.4281 219.095 29.278C219.257 28.128 219.524 25.9798 219.524 25.9798C219.524 25.9798 219.754 16.0392 212.846 16.0766C209.004 16.1099 207.607 23.9043 208.045 26.3874Z" fill="#F6E6F1"/>
<path d="M209.051 33.4477C209.974 33.4477 210.723 32.2447 210.723 30.7608C210.723 29.2769 209.974 28.074 209.051 28.074C208.127 28.074 207.378 29.2769 207.378 30.7608C207.378 32.2447 208.127 33.4477 209.051 33.4477Z" fill="#F6E6F1"/>
<path d="M218.726 32.4245C219.65 32.4245 220.399 31.1461 220.399 29.5692C220.399 27.9923 219.65 26.7139 218.726 26.7139C217.802 26.7139 217.052 27.9923 217.052 29.5692C217.052 31.1461 217.802 32.4245 218.726 32.4245Z" fill="#F6E6F1"/>
<path d="M210.723 45.3992L203.186 48.5602L193.313 67.1229L203.371 76.5789L208.176 62.945L205.944 96.5931H225.423L223.481 62.9408L230.586 70.9972L235.476 57.1595L226.25 47.5225L217.505 45.0935C217.505 45.0935 214.596 48.6996 210.723 45.3992Z" fill="#F6E6F1"/>
<path d="M215.32 14.8705C215.727 14.1999 215.996 13.3461 216.092 12.4232C216.188 11.5003 216.107 10.5521 215.859 9.70547C215.611 8.85879 215.208 8.15386 214.704 7.68483C214.2 7.2158 213.619 7.005 213.038 7.08058C212.458 7.15616 211.906 7.51453 211.455 8.10782C211.005 8.70111 210.678 9.50107 210.518 10.4009C210.358 11.3007 210.373 12.2574 210.56 13.1434C210.747 14.0294 211.099 14.8024 211.567 15.3592C209.642 16.607 207.65 19.7763 207.886 27.5457C207.886 27.5457 208.447 31.9025 208.921 25.8987C209.395 19.8948 209.262 19.402 212.868 22.2656C214.983 23.948 217.284 19.0796 217.93 19.8948C218.576 20.71 217.31 29.6586 218.727 28.074C220.111 26.5267 220.973 18.4848 215.32 14.8705Z" fill="black"/>
<path d="M211.764 27.6227C211.907 27.6227 212.022 27.4365 212.022 27.2068C212.022 26.977 211.907 26.7908 211.764 26.7908C211.621 26.7908 211.505 26.977 211.505 27.2068C211.505 27.4365 211.621 27.6227 211.764 27.6227Z" fill="black"/>
<path d="M215.88 27.8348C216.023 27.8348 216.138 27.6486 216.138 27.4189C216.138 27.1892 216.023 27.0029 215.88 27.0029C215.737 27.0029 215.621 27.1892 215.621 27.4189C215.621 27.6486 215.737 27.8348 215.88 27.8348Z" fill="black"/>
<path d="M213.96 33.7534C213.96 33.7534 212.737 33.0733 211.069 34.9013C211.069 34.893 213.567 36.5026 213.96 33.7534Z" fill="black"/>
<path d="M213.96 33.7534C213.96 33.7534 215.182 33.0733 216.85 34.9013C216.85 34.893 214.352 36.5026 213.96 33.7534Z" fill="black"/>
<path d="M211.069 40.8969C211.069 40.8969 214.5 42.4379 216.85 40.6348C216.85 40.6348 217.756 44.5528 218.726 45.9358C218.726 45.9358 214.593 50.9102 209.513 45.8983C209.513 45.8983 210.53 46.1333 211.069 40.8969Z" fill="black"/>
<path d="M209.513 47.0983L203.581 49.1779L194.492 67.1125L203.073 75.1648L208.793 60.2914L206.625 95.4369H209.162L223.788 81.6116C223.788 81.6116 209.909 65.7025 209.513 47.0983Z" fill="#3F393D"/>
<path d="M211.515 41.8639C211.515 41.8639 211.287 45.0145 210.689 45.7195C210.666 45.7476 210.642 45.772 210.615 45.7923C210.615 45.7923 214.443 48.9117 216.762 45.7923C216.762 45.7923 213.785 45.8297 215.405 42.4191C215.405 42.4275 212.9 43.2427 211.515 41.8639Z" fill="#757575"/>
<path d="M212.136 34.3232C212.136 34.3232 213.468 33.508 213.515 34.0279C213.561 34.5478 212.403 35.1384 212.136 34.3232Z" fill="#757575"/>
<path d="M214.514 33.8553C214.514 33.8553 215.775 33.7388 215.698 34.2899C215.622 34.841 214.514 33.8553 214.514 33.8553Z" fill="#757575"/>
<path d="M218.912 21.0053C218.912 21.0053 220.553 23.2929 218.726 27.1693C218.726 27.1693 218.097 23.8232 218.912 21.0053Z" fill="#757575"/>
<path d="M213.683 14.5689C213.683 14.5689 216.745 16.3636 216.897 17.7549C217.048 19.1462 213.717 22.2531 213.085 21.4358C212.453 20.6185 209.162 14.6417 213.683 14.5689Z" fill="#757575"/>
<path d="M219.447 27.4189C219.447 27.4189 218.986 28.5169 218.202 28.8288C217.417 29.1408 217.909 20.9575 217.694 20.3877C217.479 19.8179 215.401 23.008 213.956 22.9581C212.921 22.9227 210.927 21.4254 210.405 21.0053C209.882 20.5852 209.544 21.4504 209.544 21.4504C209.104 21.9827 209.043 26.4165 209.047 28.6417C209.051 30.8669 207.963 30.2347 207.963 30.2347C207.668 32.7552 209.753 33.9364 209.544 30.975C209.387 28.7789 210.076 25.1313 210.442 23.3948C211.718 24.6031 213.885 24.1289 214.387 24.0873C215.064 24.0312 217.433 21.5252 217.14 25.83C216.848 30.1348 218.37 31.5323 218.37 31.5323C220.512 30.7899 219.447 27.4189 219.447 27.4189Z" fill="#E9C1D9"/>
<path d="M214.658 23.4593C214.658 23.4593 214.35 25.8467 214.316 27.0445C214.282 28.2424 214.26 31.3847 214.541 32.7739C214.541 32.7739 214.816 34.1443 213.145 32.6387C213.145 32.6387 212.25 32.5035 212.716 31.6135C213.182 30.7234 213.435 23.792 213.435 23.792L214.658 23.4593Z" fill="#E9C1D9"/>
<path d="M211.608 38.4013V40.6348C211.608 40.6348 214.699 42.128 216.052 40.6348V38.2766C216.052 38.2766 214.192 43.0202 211.608 38.4013Z" fill="#E9C1D9"/>
<path d="M341 8.01189H221.049V110.533H341V8.01189Z" fill="#F6E6F1"/>
<path d="M221.049 8.01189C221.049 8.01189 224.279 103.531 341 110.537H221.049V8.01189Z" fill="#E9C1D9"/>
<path d="M281.336 92.5587C293.007 92.5587 302.467 77.3579 302.467 58.6069C302.467 39.8558 293.007 24.6551 281.336 24.6551C269.665 24.6551 260.204 39.8558 260.204 58.6069C260.204 77.3579 269.665 92.5587 281.336 92.5587Z" fill="#D069A0"/>
<path d="M240.316 68.9259C243.863 68.9259 246.738 64.3059 246.738 58.6069C246.738 52.9078 243.863 48.2878 240.316 48.2878C236.768 48.2878 233.893 52.9078 233.893 58.6069C233.893 64.3059 236.768 68.9259 240.316 68.9259Z" fill="#D069A0"/>
<path d="M322.769 68.9259C326.316 68.9259 329.192 64.3059 329.192 58.6069C329.192 52.9078 326.316 48.2878 322.769 48.2878C319.222 48.2878 316.347 52.9078 316.347 58.6069C316.347 64.3059 319.222 68.9259 322.769 68.9259Z" fill="#D069A0"/>
<path d="M299.626 30.3116C291.711 4.97773 272.515 -5.2519 256.743 7.46703C241.847 19.481 235.343 47.6868 241.343 72.1181L196.13 108.584L198.018 114.615L243.138 78.2218C243.158 78.2759 243.176 78.332 243.194 78.3861C251.478 102.231 270.069 111.575 285.408 99.2031C301.177 86.4945 307.542 55.6476 299.626 30.3116ZM282.683 90.4915C270.342 100.447 255.404 93.0453 248.629 74.0127C248.392 73.3541 248.166 72.6796 247.952 71.9892C247.535 70.6575 247.164 69.2906 246.839 67.8944C242.252 48.2525 247.534 25.8113 259.468 16.1869C272.239 5.88653 287.788 14.1717 294.199 34.6954C300.61 55.2192 295.455 80.1912 282.683 90.4915Z" fill="black"/>
<path d="M196.297 69.92L190.195 84.5106C190.195 84.5106 188.498 87.5427 190.294 90.1567C192.091 92.7708 201.861 102.826 201.861 102.826C201.861 102.826 204.979 109.539 206.685 110.828C208.391 112.117 206.365 107.781 205.876 107.245C205.876 107.245 208.577 111.067 209.045 110.246C209.514 109.424 206.498 105.255 206.498 105.255C206.498 105.255 209.983 109.206 210.284 108.478C210.706 107.455 207.418 103.385 207.314 103.136C207.209 102.886 210.42 106.723 211.013 105.542C211.316 104.945 206.309 99.7521 206.811 99.5108C207.314 99.2696 209.659 99.0221 208.753 97.9179C207.847 96.8136 204.315 97.5997 204.315 97.5997L195.354 87.0851L201.308 74.6532L196.297 69.92Z" fill="#F6E6F1"/>
<path d="M196.697 71.1386L199.189 73.7153L193.93 87.2328L203.601 99.018C203.601 99.018 206.571 97.6101 206.801 98.1279C207.031 98.6457 205.125 99.8332 205.125 99.8332C205.125 99.8332 207.972 101.649 210.008 104.616C210.008 104.616 209.224 104.067 207.447 102.599C205.67 101.131 207.794 105.024 207.886 105.024C207.978 105.024 210.421 107.727 209.385 107.47C208.348 107.212 206.244 104.161 206.244 104.161C206.244 104.161 205.714 105.577 206.383 106.297C207.052 107.016 208.136 109.054 207.974 109.017C207.812 108.979 205.126 105.754 205.126 105.754C205.126 105.754 205.05 106.496 205.557 107.274C206.065 108.052 206.964 109.978 206.318 109.497C205.672 109.017 202.512 102.589 202.512 102.589L191.554 90.9678C191.554 90.9678 189.132 88.4099 190.47 85.0742C191.809 81.7384 196.697 71.1386 196.697 71.1386Z" fill="#E9C1D9"/>
<path d="M246.887 78.7396C246.887 78.7396 261.239 110.221 281.705 97.1359C281.705 97.1359 261.142 116.374 246.887 78.7396Z" fill="#757575"/>
<path d="M264.758 161.421L261.575 190.775H252.025L249.118 161.421H264.758Z" fill="#F6E6F1"/>
<path d="M266.611 155.908H246.496V161.394H266.611V155.908Z" fill="#F6E6F1"/>
<path d="M250.349 138.314C250.349 138.314 256.293 130.312 260.564 136.661C260.564 136.661 254.593 143.699 250.349 138.314Z" fill="#F6E6F1"/>
<path d="M264.574 124.023C264.574 124.023 257.308 126.311 254.892 118.537C254.892 118.537 262.389 115.358 264.574 124.023Z" fill="#F6E6F1"/>
<path d="M273.162 130.487C273.162 130.487 267.191 137.524 262.947 132.15C262.947 132.15 268.891 124.148 273.162 130.487Z" fill="#F6E6F1"/>
<path d="M250.052 162.307L252.943 189.388H261.037C261.037 189.388 249.314 163.987 259.771 164.283H263.416V162.307H250.052Z" fill="#3F393D"/>
<path d="M247.073 156.798V160.654H265.897C265.897 160.654 255.516 158.726 247.073 156.798Z" fill="#3F393D"/>
<path d="M259.733 136.118C259.733 136.118 256.077 133.82 252.194 137.896C252.194 137.896 257.168 139.082 259.733 136.118Z" fill="#3F393D"/>
<path d="M256.554 118.772C256.554 118.772 260.591 117.882 264.143 123.664C264.143 123.664 258.422 121.96 256.554 118.772Z" fill="#3F393D"/>
<path d="M263.544 132.04C263.544 132.04 268.047 128.852 270.325 129.961C270.325 129.965 269.449 133.745 263.544 132.04Z" fill="#3F393D"/>
<path d="M213.375 7.69995C213.375 7.69995 215.705 9.94594 214.259 14.4566C214.259 14.4566 217.384 9.03298 213.375 7.69995Z" fill="#B36F6F"/>
</svg>
