<svg width="32" height="32" viewBox="0 0 32 32" fill="none" xmlns="http://www.w3.org/2000/svg">
<path d="M4.57143 4.57143C4.57143 3.35901 5.05306 2.19625 5.91037 1.33894C6.76768 0.481631 7.93044 0 9.14286 0C10.3553 0 11.518 0.481631 12.3753 1.33894C13.2327 2.19625 13.7143 3.35901 13.7143 4.57143C13.7143 5.78385 13.2327 6.94661 12.3753 7.80392C11.518 8.66123 10.3553 9.14286 9.14286 9.14286C7.93044 9.14286 6.76768 8.66123 5.91037 7.80392C5.05306 6.94661 4.57143 5.78385 4.57143 4.57143V4.57143ZM20.0663 8.192L20.1623 8.26514C21.1321 8.98401 22.3469 9.2901 23.5415 9.1166C24.7362 8.9431 25.8137 8.3041 26.539 7.33905C27.2643 6.37401 27.5783 5.16126 27.4127 3.96549C27.2471 2.76971 26.6153 1.68798 25.655 0.95637C24.6948 0.22476 23.4841 -0.0973335 22.2873 0.060382C21.0904 0.218098 20.0046 0.842817 19.2666 1.79821C18.5287 2.75359 18.1986 3.96208 18.3484 5.15994C18.4983 6.3578 19.1158 7.44778 20.0663 8.192V8.192ZM12.0411 11.4286C12.3282 10.8849 12.722 10.4048 13.199 10.0169C13.6759 9.62897 14.2262 9.34124 14.8169 9.1709C15.4076 9.00056 16.0266 8.95112 16.6368 9.02554C17.2471 9.09995 17.8361 9.29669 18.3685 9.60399C18.901 9.91129 19.366 10.3228 19.7358 10.814C20.1055 11.3052 20.3724 11.8659 20.5204 12.4625C20.6685 13.0592 20.6946 13.6796 20.5973 14.2867C20.5001 14.8937 20.2814 15.4749 19.9543 15.9954C19.3251 16.9969 18.3322 17.7155 17.1843 18.0003C16.0364 18.2851 14.8228 18.1139 13.7985 17.5227C12.7741 16.9315 12.0187 15.9664 11.6911 14.83C11.3634 13.6936 11.4888 12.4744 12.0411 11.4286V11.4286ZM3.42857 11.4286H9.53143C9.1252 12.5887 9.03687 13.8364 9.27562 15.0422C9.51436 16.248 10.0715 17.3679 10.8891 18.2857H10.2857C9.10728 18.2855 7.9576 18.6496 6.99402 19.328C6.03044 20.0064 5.30006 20.966 4.90286 22.0754C4.13562 21.7672 3.41725 21.3491 2.77029 20.8343C1.05143 19.4514 0 17.408 0 14.8571C0 13.9478 0.361224 13.0758 1.00421 12.4328C1.64719 11.7898 2.51926 11.4286 3.42857 11.4286V11.4286ZM21.7143 18.2857C22.8924 18.2857 24.0417 18.6498 25.0049 19.3282C25.9681 20.0066 26.6981 20.9661 27.0949 22.0754C27.872 21.7577 28.592 21.344 29.2297 20.8343C30.9486 19.4514 32 17.408 32 14.8571C32 13.9478 31.6388 13.0758 30.9958 12.4328C30.3528 11.7898 29.4807 11.4286 28.5714 11.4286H22.4686C22.72 12.144 22.8571 12.9143 22.8571 13.7143C22.8593 15.4014 22.2373 17.0297 21.1109 18.2857H21.7143ZM24.8846 22.6926C25.0514 23.0949 25.1429 23.5383 25.1429 24C25.1429 26.5509 24.0937 28.5943 22.3726 29.9771C20.6789 31.3371 18.4069 32 16 32C13.5931 32 11.3211 31.3371 9.62743 29.9771C7.90857 28.5943 6.85714 26.5509 6.85714 24C6.85594 23.5494 6.9438 23.103 7.11567 22.6865C7.28755 22.27 7.54005 21.8916 7.85866 21.5729C8.17727 21.2543 8.55571 21.0018 8.97223 20.83C9.38875 20.6581 9.83513 20.5702 10.2857 20.5714H21.7143C22.3934 20.5713 23.0572 20.7728 23.6216 21.1504C24.1861 21.5281 24.6256 22.0648 24.8846 22.6926Z" fill="#F36DFF"/>
</svg>
