<svg width="32" height="32" viewBox="0 0 32 32" fill="none" xmlns="http://www.w3.org/2000/svg">
<path d="M8.00803 25.1429H23.9923V27.4286H8.00803V25.1429ZM11.2049 29.7143H20.7955V32H11.2049V29.7143ZM16.0002 0C11.7609 0 7.69521 1.20408 4.69757 3.34735C1.69993 5.49062 0.0158785 8.39753 0.0158785 11.4286C-0.0922164 13.0895 0.352786 14.7451 1.31428 16.2591C2.27577 17.7731 3.72627 19.1022 5.54645 20.1371C7.14488 21.2 8.00803 21.8057 8.00803 22.8571H11.2049C11.2049 20.7543 9.43063 19.5771 7.70433 18.4457C6.21037 17.6277 5.01972 16.5603 4.23666 15.337C3.4536 14.1136 3.10203 12.7716 3.21274 11.4286C3.21274 9.00374 4.55998 6.67821 6.95809 4.9636C9.3562 3.24898 12.6087 2.28571 16.0002 2.28571C19.3916 2.28571 22.6441 3.24898 25.0423 4.9636C27.4404 6.67821 28.7876 9.00374 28.7876 11.4286C28.8965 12.7726 28.5424 14.1152 27.7566 15.3387C26.9707 16.5621 25.7769 17.629 24.28 18.4457C22.5697 19.5886 20.7955 20.7314 20.7955 22.8571H23.9923C23.9923 21.8057 24.8395 21.2 26.4539 20.1257C28.2728 19.0925 29.7227 17.7654 30.6841 16.2534C31.6456 14.7414 32.0913 13.0878 31.9845 11.4286C31.9845 9.92775 31.571 8.44162 30.7677 7.05505C29.9645 5.66847 28.7871 4.40859 27.3028 3.34735C25.8185 2.28611 24.0564 1.44429 22.1171 0.869948C20.1778 0.295609 18.0993 0 16.0002 0V0Z" fill="white"/>
</svg>
