<svg width="34" height="34" viewBox="0 0 34 34" fill="none" xmlns="http://www.w3.org/2000/svg">
<path d="M22.3333 33H11.6667V18.0659C11.6667 17.783 11.779 17.5116 11.9791 17.3116C12.1791 17.1115 12.4504 16.9991 12.7333 16.9991H21.2667C21.5496 16.9991 21.8209 17.1115 22.0209 17.3116C22.221 17.5116 22.3333 17.783 22.3333 18.0659V33V33ZM31.9333 33H22.3333V27.8442C22.3333 27.5613 22.4457 27.2899 22.6458 27.0899C22.8458 26.8898 23.1171 26.7774 23.4 26.7774H31.9333C32.2162 26.7774 32.4875 26.8898 32.6876 27.0899C32.8876 27.2899 33 27.5613 33 27.8442V31.9333C33 32.2162 32.8876 32.4875 32.6876 32.6876C32.4875 32.8876 32.2162 33 31.9333 33V33ZM11.6667 33V24.2884C11.6667 24.0055 11.5543 23.7342 11.3542 23.5341C11.1542 23.3341 10.8829 23.2217 10.6 23.2217H2.06667C1.78377 23.2217 1.51246 23.3341 1.31242 23.5341C1.11238 23.7342 1 24.0055 1 24.2884V31.9333C1 32.2162 1.11238 32.4875 1.31242 32.6876C1.51246 32.8876 1.78377 33 2.06667 33H11.6667V33ZM14.8773 4.75494L16.4933 1.32898C16.537 1.23104 16.608 1.14784 16.698 1.08946C16.7879 1.03107 16.8928 1 17 1C17.1072 1 17.2121 1.03107 17.302 1.08946C17.392 1.14784 17.463 1.23104 17.5067 1.32898L19.1244 4.75494L22.7369 5.30786C23.2009 5.37897 23.3858 5.97634 23.0498 6.31769L20.4364 8.9845L21.0533 12.75C21.1316 13.2336 20.648 13.6034 20.232 13.3741L17 11.5962L13.768 13.3741C13.3538 13.6016 12.8684 13.2336 12.9467 12.75L13.5636 8.9845L10.9502 6.31769C10.6124 5.97634 10.7991 5.37897 11.2613 5.30786L14.8773 4.75671V4.75494Z" stroke="#F36DFF" stroke-width="1.5" stroke-linecap="round" stroke-linejoin="round"/>
</svg>
