<svg width="21" height="18" viewBox="0 0 21 18" fill="none" xmlns="http://www.w3.org/2000/svg">
<g clip-path="url(#clip0_52_18)">
<path d="M13.3438 7.69005e-07C11.9529 -0.000593472 10.5915 0.343219 9.42319 0.990091C8.25491 1.63696 7.32951 2.55935 6.7583 3.64632C6.18708 4.73329 5.99437 5.93855 6.20335 7.11717C6.41232 8.29579 7.01408 9.39757 7.93625 10.29L0.875 17.16L1.855 17.91L8.89875 11.07C9.80478 11.6775 10.867 12.0906 11.997 12.2749C13.127 12.4592 14.2921 12.4095 15.3951 12.1297C16.4981 11.85 17.5072 11.3484 18.3383 10.6668C19.1693 9.98509 19.7984 9.14308 20.1729 8.21086C20.5475 7.27864 20.6568 6.2832 20.4917 5.30746C20.3266 4.33171 19.8918 3.40391 19.2237 2.60132C18.5555 1.79874 17.6733 1.14462 16.6506 0.693438C15.6278 0.242258 14.494 0.00708232 13.3438 0.00750077V7.69005e-07ZM13.3438 11.25C11.7773 11.25 10.275 10.7166 9.1674 9.76723C8.05976 8.81783 7.4375 7.53016 7.4375 6.1875C7.4375 4.84484 8.05976 3.55718 9.1674 2.60777C10.275 1.65837 11.7773 1.125 13.3438 1.125C14.9102 1.125 16.4125 1.65837 17.5201 2.60777C18.6277 3.55718 19.25 4.84484 19.25 6.1875C19.25 7.53016 18.6277 8.81783 17.5201 9.76723C16.4125 10.7166 14.9102 11.25 13.3438 11.25V11.25Z" fill="black"/>
</g>
<defs>
<clipPath id="clip0_52_18">
<rect width="21" height="18" fill="white"/>
</clipPath>
</defs>
</svg>
