<svg width="24" height="24" viewBox="0 0 24 24" fill="none" xmlns="http://www.w3.org/2000/svg">
<g clip-path="url(#clip0_8_25)">
<path d="M6.92392 0.0024177C6.17777 -0.0293569 5.35764 0.278023 4.25027 0.905854C3.07127 1.36185 2.39683 2.59419 3.78264 2.5934L3.74899 3.6778L2.87524 4.08084L2.8428 5.13436C2.8428 5.13436 2.7078 6.36107 3.82033 6.28794C3.67436 6.32895 3.55202 6.41447 3.71533 6.61076C4.01627 6.97222 4.41264 6.85233 5.85002 6.89245C7.28749 6.93267 7.44236 8.85425 7.44236 8.85425C7.44236 8.85425 7.76524 12.0031 7.71724 15.0713C6.15986 14.0752 4.60502 13.1935 4.12145 13.3206C3.05177 13.6019 2.1378 14.8707 3.05149 16.695C3.88642 18.3623 5.29624 19.5502 6.71692 20.6213C5.92127 22.1639 4.54117 23.405 2.08474 22.6262C0.756111 22.6741 -1.04511 23.7444 0.763423 23.8059C4.26011 24.1473 6.81011 23.95 8.33833 21.9579C8.35117 21.943 8.36214 21.9275 8.3748 21.9127C8.37049 21.918 8.36655 21.9247 8.36224 21.9299C10.5523 23.5679 13.2781 24.0755 15.79 23.4076C15.913 23.3594 16.3118 23.297 16.2782 23.2397C16.2988 23.2423 16.3162 23.2462 16.337 23.2491C16.3482 23.1702 18.8444 23.5711 20.6856 22.674C22.4695 21.8048 23.6337 20.1773 23.8805 18.4879C24.8944 11.5452 19.1523 10.994 18.3998 10.7122C17.8255 10.5251 17.2511 10.3381 16.6768 10.1508C16.351 9.17143 15.916 8.21267 15.3595 7.16433C15.0278 6.53812 14.6132 5.9813 14.1321 5.51588C14.1332 5.51701 14.1385 5.52129 14.1395 5.52242C14.1395 5.52242 14.3082 4.88152 14.9504 4.2174C15.0801 4.09312 17.2415 2.10811 21.172 4.11802L21.4492 7.33752L23.2348 7.22653L23.0192 2.86033C22.3879 1.97121 17.0286 -0.701582 13.1586 2.84681C12.5903 3.43836 12.234 4.26169 12.234 4.26169C12.238 4.26304 12.2432 4.26698 12.2471 4.26957C11.5948 3.99002 10.9449 3.83554 10.3543 3.75284C10.3539 3.75019 10.3535 3.74752 10.3532 3.74484C10.3532 3.74484 9.60189 1.25898 8.23333 0.430023C7.79299 0.163319 7.37158 0.022136 6.92392 0.00298108V0.0024177ZM10.7335 11.8277C11.3144 13.0001 11.7381 14.0496 11.9228 15.3496C11.8318 16.1389 11.6946 16.9202 11.4962 17.6567C11.4962 17.6567 11.0014 17.2968 10.291 16.7986C10.4219 15.8046 10.5111 14.7379 10.6167 13.5756C10.6518 13.0102 10.6928 12.4146 10.7336 11.8277H10.7335ZM17.1912 12.2446C17.1955 12.2714 17.2015 12.2977 17.2055 12.3247C17.2297 12.475 17.2495 12.6305 17.2717 12.7812C17.8933 12.9914 18.5178 13.1968 19.1395 13.407C19.1395 13.407 22.2148 14.1273 21.7457 17.8549C21.3041 21.3644 16.8979 21.0875 16.9135 20.9702C17.4412 17.0077 17.545 14.4215 17.1912 12.2446Z" fill="black"/>
</g>
<defs>
<clipPath id="clip0_8_25">
<rect width="24" height="24" rx="2" fill="white"/>
</clipPath>
</defs>
</svg>
